<svg width="52" height="52" viewBox="0 0 52 52" fill="none" xmlns="http://www.w3.org/2000/svg">
<path fill-rule="evenodd" clip-rule="evenodd" d="M26 5.1991C21.1728 5.1991 16.5434 7.11669 13.13 10.53C11.4398 12.2201 10.099 14.2265 9.18428 16.4348C8.26952 18.643 7.79871 21.0098 7.79871 23.4C7.79871 25.7902 8.26952 28.157 9.18428 30.3653C10.099 32.5735 11.4398 34.58 13.13 36.27L26 49.14L38.87 36.27C42.2834 32.8567 44.2009 28.2272 44.2009 23.4C44.2009 18.5728 42.2834 13.9434 38.87 10.53C35.4567 7.11669 30.8272 5.1991 26 5.1991ZM34.6557 22.3276C34.3713 22.0432 33.9855 21.8834 33.5833 21.8834H27.5166V15.8167C27.5166 15.4145 27.3568 15.0287 27.0724 14.7443C26.788 14.4598 26.4022 14.3 26 14.3C25.5977 14.3 25.212 14.4598 24.9275 14.7443C24.6431 15.0287 24.4833 15.4145 24.4833 15.8167V21.8834H18.4166C18.0144 21.8834 17.6286 22.0432 17.3442 22.3276C17.0598 22.612 16.9 22.9978 16.9 23.4C16.9 23.8023 17.0598 24.1881 17.3442 24.4725C17.6286 24.7569 18.0144 24.9167 18.4166 24.9167H24.4833V30.9834C24.4833 31.3856 24.6431 31.7714 24.9275 32.0558C25.212 32.3403 25.5977 32.5 26 32.5C26.4022 32.5 26.788 32.3403 27.0724 32.0558C27.3568 31.7714 27.5166 31.3856 27.5166 30.9834V24.9167H33.5833C33.9855 24.9167 34.3713 24.7569 34.6557 24.4725C34.9402 24.1881 35.1 23.8023 35.1 23.4C35.1 22.9978 34.9402 22.612 34.6557 22.3276Z" fill="#828282"/>
</svg>
