<svg width="36" height="36" viewBox="0 0 36 36" fill="none" xmlns="http://www.w3.org/2000/svg">
<path fill-rule="evenodd" clip-rule="evenodd" d="M9.08996 7.29001C11.453 4.92693 14.6581 3.59937 18 3.59937C21.3419 3.59937 24.5469 4.92693 26.91 7.29001C29.273 9.65309 30.6006 12.8581 30.6006 16.2C30.6006 19.5419 29.273 22.7469 26.91 25.11L18 34.02L9.08996 25.11C7.9198 23.94 6.99158 22.5509 6.35829 21.0221C5.725 19.4933 5.39905 17.8548 5.39905 16.2C5.39905 14.5452 5.725 12.9067 6.35829 11.3779C6.99158 9.84911 7.9198 8.46004 9.08996 7.29001Z" fill="#828282"/>
<path d="M23.2501 15.15C23.5286 15.15 23.7956 15.2606 23.9925 15.4576C24.1895 15.6545 24.3001 15.9215 24.3001 16.2C24.3001 16.4785 24.1895 16.7456 23.9925 16.9425C23.7956 17.1394 23.5286 17.25 23.2501 17.25H19.0501V21.45C19.0501 21.7285 18.9394 21.9956 18.7425 22.1925C18.5456 22.3894 18.2786 22.5 18.0001 22.5C17.7216 22.5 17.4545 22.3894 17.2576 22.1925C17.0607 21.9956 16.9501 21.7285 16.9501 21.45V17.25H12.7501C12.4716 17.25 12.2045 17.1394 12.0076 16.9425C11.8107 16.7456 11.7001 16.4785 11.7001 16.2C11.7001 15.9215 11.8107 15.6545 12.0076 15.4576C12.2045 15.2606 12.4716 15.15 12.7501 15.15H16.9501V10.95C16.9501 10.6715 17.0607 10.4045 17.2576 10.2076C17.4545 10.0106 17.7216 9.90002 18.0001 9.90002C18.2786 9.90002 18.5456 10.0106 18.7425 10.2076C18.9394 10.4045 19.0501 10.6715 19.0501 10.95V15.15H23.2501Z" fill="white"/>
</svg>
