<svg width="36" height="36" viewBox="0 0 36 36" fill="none" xmlns="http://www.w3.org/2000/svg">
<path fill-rule="evenodd" clip-rule="evenodd" d="M9.22936 7.15219C11.5924 4.78911 14.7975 3.46155 18.1394 3.46155C21.4813 3.46155 24.6863 4.78911 27.0494 7.15219C29.4124 9.51527 30.74 12.7203 30.74 16.0622C30.74 19.4041 29.4124 22.6091 27.0494 24.9722L18.1394 33.8822L9.22936 24.9722C8.05921 23.8022 7.13098 22.4131 6.49769 20.8843C5.8644 19.3555 5.53845 17.717 5.53845 16.0622C5.53845 14.4074 5.8644 12.7689 6.49769 11.2401C7.13098 9.7113 8.05921 8.32223 9.22936 7.15219Z" fill="#F56565"/>
<path d="M18.1385 19.6615C19.0932 19.6615 20.0089 19.2823 20.684 18.6071C21.3591 17.932 21.7385 17.0163 21.7385 16.0615C21.7385 15.1068 21.3591 14.1911 20.684 13.516C20.0089 12.8408 19.0932 12.4615 18.1385 12.4615C17.1836 12.4615 16.268 12.8408 15.5928 13.516C14.9177 14.1911 14.5385 15.1068 14.5385 16.0615C14.5385 17.0163 14.9177 17.932 15.5928 18.6071C16.268 19.2823 17.1836 19.6615 18.1385 19.6615Z" fill="white"/>
</svg>
