<svg width="36" height="36" viewBox="0 0 36 36" fill="none" xmlns="http://www.w3.org/2000/svg">
<path fill-rule="evenodd" clip-rule="evenodd" d="M9.22936 7.15207C11.5924 4.78899 14.7975 3.46143 18.1394 3.46143C21.4813 3.46143 24.6863 4.78899 27.0494 7.15207C29.4124 9.51515 30.74 12.7202 30.74 16.0621C30.74 19.404 29.4124 22.609 27.0494 24.9721L18.1394 33.8821L9.22936 24.9721C8.05921 23.802 7.13098 22.413 6.49769 20.8842C5.8644 19.3554 5.53845 17.7168 5.53845 16.0621C5.53845 14.4073 5.8644 12.7688 6.49769 11.24C7.13098 9.71118 8.05921 8.32211 9.22936 7.15207Z" fill="#828282"/>
<path d="M18.1385 19.6614C19.0932 19.6614 20.0089 19.2821 20.684 18.607C21.3591 17.9319 21.7385 17.0162 21.7385 16.0614C21.7385 15.1066 21.3591 14.191 20.684 13.5158C20.0089 12.8407 19.0932 12.4614 18.1385 12.4614C17.1836 12.4614 16.268 12.8407 15.5928 13.5158C14.9177 14.191 14.5385 15.1066 14.5385 16.0614C14.5385 17.0162 14.9177 17.9319 15.5928 18.607C16.268 19.2821 17.1836 19.6614 18.1385 19.6614Z" fill="white"/>
</svg>
